<svg width="636" height="636" viewBox="0 0 636 636" fill="none" xmlns="http://www.w3.org/2000/svg">
<path d="M172.318 562.348C203.113 593.234 276.507 579.823 307.913 558.983C409.889 491.355 588.758 378.541 593.083 221.48C594.927 154.691 535.143 121.15 510.275 111.46C450.491 88.2443 385.53 82.4531 321.46 81.1704C254.527 79.9004 182.875 83.939 123.486 118C100.984 130.904 79.8561 147.21 65.6733 169.207C51.2489 191.457 43.248 217.784 41.6707 244.213C39.0377 286.834 51.5669 329.201 69.8582 367.797C88.1496 406.392 112.165 441.965 134.31 478.503C148.748 502.353 146.369 536.326 172.318 562.348Z" fill="#71C0F0"/>
<path opacity="0.7" d="M172.318 562.348C203.113 593.234 276.507 579.823 307.913 558.983C409.889 491.355 588.758 378.541 593.083 221.48C594.927 154.691 535.143 121.15 510.275 111.46C450.491 88.2443 385.53 82.4531 321.46 81.1704C254.527 79.9004 182.875 83.939 123.486 118C100.984 130.904 79.8561 147.21 65.6733 169.207C51.2489 191.457 43.248 217.784 41.6707 244.213C39.0377 286.834 51.5669 329.201 69.8582 367.797C88.1496 406.392 112.165 441.965 134.31 478.503C148.748 502.353 146.369 536.326 172.318 562.348Z" fill="white"/>
<path d="M571.535 71.5692H64.4522V93.4005H571.535V71.5692Z" stroke="#263238" stroke-linecap="round" stroke-linejoin="round"/>
<path d="M564.119 86.987C563.229 87.8735 562.096 88.4767 560.863 88.7204C559.629 88.9641 558.351 88.8374 557.19 88.3563C556.029 87.8752 555.037 87.0613 554.339 86.0174C553.64 84.9735 553.268 83.7464 553.268 82.4912C553.268 81.236 553.64 80.0089 554.339 78.965C555.037 77.9211 556.029 77.1072 557.19 76.6261C558.351 76.145 559.629 76.0183 560.863 76.262C562.096 76.5058 563.229 77.109 564.119 77.9954C564.712 78.5853 565.182 79.286 565.502 80.0575C565.823 80.8289 565.988 81.656 565.988 82.4912C565.988 83.3264 565.823 84.1535 565.502 84.925C565.182 85.6964 564.712 86.3971 564.119 86.987Z" stroke="#263238" stroke-linecap="round" stroke-linejoin="round"/>
<path d="M561.931 80.1798L557.289 84.8026" stroke="#263238" stroke-linecap="round" stroke-linejoin="round"/>
<path d="M561.931 84.8026L557.289 80.1798" stroke="#263238" stroke-linecap="round" stroke-linejoin="round"/>
<path d="M546.858 82.4912C546.858 83.7471 546.485 84.9748 545.786 86.0191C545.087 87.0633 544.094 87.8772 542.932 88.3578C541.77 88.8385 540.491 88.9642 539.257 88.7192C538.024 88.4742 536.89 87.8694 536.001 86.9813C535.112 86.0933 534.506 84.9618 534.26 83.73C534.015 82.4982 534.141 81.2215 534.622 80.0612C535.104 78.9009 535.919 77.9091 536.965 77.2114C538.011 76.5136 539.24 76.1412 540.498 76.1412C542.185 76.1412 543.803 76.8102 544.995 78.0011C546.188 79.1919 546.858 80.8071 546.858 82.4912Z" stroke="#263238" stroke-linecap="round" stroke-linejoin="round"/>
<path d="M540.486 85.7678V79.2146H543.767V82.4912H537.204V85.7678H540.486Z" stroke="#263238" stroke-linecap="round" stroke-linejoin="round"/>
<path d="M527.74 82.4912C527.74 83.7471 527.367 84.9748 526.668 86.0191C525.969 87.0633 524.976 87.8772 523.814 88.3578C522.652 88.8385 521.373 88.9642 520.139 88.7192C518.906 88.4742 517.772 87.8694 516.883 86.9813C515.993 86.0933 515.388 84.9618 515.142 83.73C514.897 82.4982 515.023 81.2215 515.504 80.0612C515.986 78.9009 516.801 77.9091 517.847 77.2114C518.892 76.5136 520.122 76.1412 521.38 76.1412C523.067 76.1412 524.684 76.8102 525.877 78.0011C527.07 79.1919 527.74 80.8071 527.74 82.4912Z" stroke="#263238" stroke-linecap="round" stroke-linejoin="round"/>
<path d="M524.649 82.4912H518.086" stroke="#263238" stroke-linecap="round" stroke-linejoin="round"/>
<path d="M63.6253 212.882V99.433H159.051" stroke="#263238" stroke-linecap="round" stroke-linejoin="round"/>
<path d="M571.548 278.02V99.433H521.367" stroke="#263238" stroke-linecap="round" stroke-linejoin="round"/>
<path d="M571.548 290.085V329.43" stroke="#263238" stroke-linecap="round" stroke-linejoin="round"/>
<path d="M571.548 359.389V374.82" stroke="#263238" stroke-linecap="round" stroke-linejoin="round"/>
<path d="M63.5618 223.22V241.305" stroke="#263238" stroke-linecap="round" stroke-linejoin="round"/>
<path d="M169.621 99.433H305.127" stroke="#263238" stroke-linecap="round" stroke-linejoin="round"/>
<path d="M348.452 99.433H357.076" stroke="#263238" stroke-linecap="round" stroke-linejoin="round"/>
<path d="M461.049 491.863H452.908C451.643 491.828 450.427 491.36 449.466 490.537C448.505 489.714 447.857 488.586 447.63 487.342L445.658 474.972" stroke="#263238" stroke-linecap="round" stroke-linejoin="round"/>
<path d="M490.242 474.972L492.226 487.342C492.332 487.898 492.312 488.471 492.169 489.019C492.025 489.567 491.761 490.076 491.395 490.509C491.03 490.942 490.572 491.288 490.056 491.522C489.539 491.757 488.977 491.873 488.41 491.863H465.081" stroke="#263238" stroke-linecap="round" stroke-linejoin="round"/>
<path d="M474.138 458.068H483.042C484.306 458.106 485.518 458.576 486.476 459.398C487.435 460.221 488.082 461.348 488.308 462.589L489.504 470.095" stroke="#263238" stroke-linecap="round" stroke-linejoin="round"/>
<path d="M467.956 458.068H470.767" stroke="#263238" stroke-linecap="round" stroke-linejoin="round"/>
<path d="M445.111 471.53L443.674 462.64C443.568 462.084 443.587 461.511 443.731 460.963C443.875 460.415 444.139 459.906 444.504 459.473C444.87 459.04 445.328 458.694 445.844 458.46C446.36 458.226 446.923 458.109 447.49 458.119H462.219" stroke="#263238" stroke-linecap="round" stroke-linejoin="round"/>
<path d="M477.992 451.198H474.723C474.449 451.204 474.182 451.291 473.956 451.447C473.731 451.602 473.555 451.82 473.451 452.074L472.357 454.881H452.908C451.957 454.881 451.029 455.178 450.256 455.732C449.482 456.285 448.902 457.067 448.596 457.967" stroke="#263238" stroke-linecap="round" stroke-linejoin="round"/>
<path d="M492.951 459.427C492.95 458.281 492.514 457.178 491.73 456.341C490.946 455.504 489.873 454.996 488.728 454.919L487.621 452.074C487.517 451.82 487.342 451.602 487.116 451.447C486.89 451.291 486.624 451.204 486.349 451.198H480.18" stroke="#263238" stroke-linecap="round" stroke-linejoin="round"/>
<path d="M488.448 491.863C489.045 491.865 489.637 491.749 490.19 491.522C490.742 491.294 491.244 490.961 491.667 490.54C492.09 490.118 492.426 489.618 492.655 489.067C492.884 488.516 493.002 487.926 493.002 487.329V464.05" stroke="#263238" stroke-linecap="round" stroke-linejoin="round"/>
<path d="M379.628 479.493L376.932 462.59C376.826 462.033 376.845 461.46 376.989 460.912C377.133 460.365 377.397 459.856 377.762 459.423C378.128 458.99 378.586 458.643 379.102 458.409C379.618 458.175 380.181 458.058 380.748 458.068H386.599" stroke="#263238" stroke-linecap="round" stroke-linejoin="round"/>
<path d="M406.391 491.863H386.154C384.889 491.826 383.675 491.357 382.714 490.534C381.753 489.711 381.104 488.585 380.875 487.342L380.252 483.417" stroke="#263238" stroke-linecap="round" stroke-linejoin="round"/>
<path d="M416.122 491.863H409.406" stroke="#263238" stroke-linecap="round" stroke-linejoin="round"/>
<path d="M391.776 458.068H416.3C417.564 458.106 418.776 458.576 419.735 459.398C420.693 460.221 421.34 461.348 421.566 462.589L425.522 487.342C425.628 487.898 425.609 488.471 425.465 489.019C425.321 489.567 425.057 490.076 424.691 490.509C424.326 490.942 423.868 491.288 423.352 491.522C422.836 491.757 422.273 491.873 421.706 491.863" stroke="#263238" stroke-linecap="round" stroke-linejoin="round"/>
<path d="M397.5 454.881H386.154C385.203 454.883 384.276 455.181 383.503 455.734C382.73 456.288 382.149 457.068 381.842 457.967" stroke="#263238" stroke-linecap="round" stroke-linejoin="round"/>
<path d="M426.196 474.972V459.427C426.196 458.281 425.759 457.178 424.975 456.341C424.191 455.504 423.118 454.996 421.973 454.919L420.867 452.074C420.766 451.818 420.591 451.598 420.364 451.442C420.138 451.286 419.87 451.201 419.595 451.198H407.981C407.706 451.201 407.438 451.286 407.212 451.442C406.985 451.598 406.81 451.818 406.709 452.074L405.615 454.881H401.227" stroke="#263238" stroke-linecap="round" stroke-linejoin="round"/>
<path d="M421.643 491.863C422.24 491.865 422.832 491.749 423.384 491.522C423.937 491.294 424.439 490.961 424.862 490.54C425.285 490.118 425.62 489.618 425.849 489.067C426.078 488.516 426.196 487.926 426.196 487.329V478.02" stroke="#263238" stroke-linecap="round" stroke-linejoin="round"/>
<path d="M394.32 430.662H386.167C384.901 430.625 383.687 430.155 382.727 429.333C381.766 428.51 381.117 427.383 380.888 426.14L378.916 413.758" stroke="#263238" stroke-linecap="round" stroke-linejoin="round"/>
<path d="M423.5 413.758L425.471 426.14C425.577 426.697 425.558 427.27 425.414 427.818C425.27 428.365 425.006 428.874 424.641 429.307C424.275 429.741 423.817 430.087 423.301 430.321C422.785 430.555 422.222 430.672 421.655 430.662H398.327" stroke="#263238" stroke-linecap="round" stroke-linejoin="round"/>
<path d="M407.383 396.854H416.287C417.552 396.895 418.765 397.367 419.723 398.192C420.681 399.017 421.327 400.145 421.554 401.388L422.762 408.881" stroke="#263238" stroke-linecap="round" stroke-linejoin="round"/>
<path d="M401.202 396.854H404.025" stroke="#263238" stroke-linecap="round" stroke-linejoin="round"/>
<path d="M378.356 410.329L376.932 401.439C376.824 400.882 376.842 400.307 376.984 399.758C377.127 399.209 377.391 398.698 377.757 398.263C378.122 397.829 378.581 397.481 379.098 397.246C379.616 397.011 380.179 396.895 380.748 396.905H395.477" stroke="#263238" stroke-linecap="round" stroke-linejoin="round"/>
<path d="M411.25 389.996H407.969C407.693 389.996 407.423 390.08 407.196 390.237C406.969 390.393 406.795 390.615 406.697 390.873L405.603 393.679H386.154C385.203 393.681 384.276 393.98 383.503 394.533C382.73 395.086 382.149 395.867 381.842 396.765" stroke="#263238" stroke-linecap="round" stroke-linejoin="round"/>
<path d="M426.196 398.226C426.196 397.08 425.759 395.977 424.975 395.14C424.191 394.303 423.118 393.795 421.973 393.717L420.867 390.873C420.769 390.615 420.594 390.393 420.367 390.237C420.14 390.08 419.871 389.996 419.595 389.996H413.4" stroke="#263238" stroke-linecap="round" stroke-linejoin="round"/>
<path d="M421.643 430.662C422.24 430.663 422.832 430.547 423.384 430.32C423.937 430.093 424.439 429.759 424.862 429.338C425.285 428.917 425.62 428.417 425.849 427.866C426.078 427.315 426.196 426.724 426.196 426.128V402.874" stroke="#263238" stroke-linecap="round" stroke-linejoin="round"/>
<path d="M446.383 418.33L443.674 401.426C443.566 400.869 443.584 400.295 443.726 399.745C443.869 399.196 444.133 398.685 444.499 398.251C444.864 397.816 445.323 397.469 445.84 397.234C446.358 396.999 446.921 396.882 447.49 396.892H453.341" stroke="#263238" stroke-linecap="round" stroke-linejoin="round"/>
<path d="M473.184 430.662H452.908C451.643 430.627 450.427 430.159 449.466 429.335C448.505 428.512 447.857 427.384 447.63 426.14L447.006 422.216" stroke="#263238" stroke-linecap="round" stroke-linejoin="round"/>
<path d="M482.877 430.662H476.161" stroke="#263238" stroke-linecap="round" stroke-linejoin="round"/>
<path d="M458.48 396.854H483.004C484.269 396.895 485.481 397.367 486.439 398.192C487.398 399.017 488.044 400.145 488.27 401.388L492.264 426.141C492.37 426.697 492.35 427.27 492.207 427.818C492.063 428.365 491.799 428.874 491.433 429.307C491.068 429.741 490.61 430.087 490.094 430.321C489.577 430.555 489.015 430.672 488.448 430.662" stroke="#263238" stroke-linecap="round" stroke-linejoin="round"/>
<path d="M464.28 393.679H452.934C451.982 393.679 451.055 393.977 450.281 394.531C449.508 395.084 448.927 395.866 448.622 396.765" stroke="#263238" stroke-linecap="round" stroke-linejoin="round"/>
<path d="M492.951 413.758V398.226C492.95 397.08 492.514 395.977 491.73 395.14C490.946 394.303 489.873 393.795 488.728 393.717L487.621 390.873C487.519 390.618 487.344 390.399 487.117 390.243C486.891 390.087 486.624 390.001 486.349 389.996H474.749C474.474 390.001 474.207 390.087 473.98 390.243C473.754 390.399 473.579 390.618 473.477 390.873L472.383 393.679H468.007" stroke="#263238" stroke-linecap="round" stroke-linejoin="round"/>
<path d="M488.448 430.662C489.045 430.663 489.637 430.547 490.19 430.32C490.742 430.093 491.244 429.759 491.667 429.338C492.09 428.917 492.426 428.417 492.655 427.866C492.884 427.315 493.002 426.724 493.002 426.128V416.768" stroke="#263238" stroke-linecap="round" stroke-linejoin="round"/>
<path d="M116.935 339.196H81.408C80.1418 339.156 78.9275 338.684 77.9671 337.86C77.0067 337.035 76.3581 335.906 76.1292 334.662L72.186 309.91C72.0801 309.354 72.0996 308.781 72.2433 308.233C72.3871 307.685 72.6513 307.176 73.0168 306.743C73.3823 306.31 73.8399 305.964 74.3563 305.73C74.8727 305.495 75.4349 305.379 76.002 305.389H111.542C112.805 305.427 114.018 305.896 114.976 306.719C115.935 307.542 116.581 308.668 116.808 309.91L120.764 334.662C120.872 335.221 120.854 335.796 120.71 336.347C120.567 336.897 120.302 337.408 119.935 337.843C119.568 338.278 119.108 338.625 118.589 338.859C118.069 339.093 117.504 339.209 116.935 339.196Z" stroke="#263238" stroke-linecap="round" stroke-linejoin="round"/>
<path d="M116.935 339.196C118.143 339.196 119.301 338.717 120.155 337.865C121.009 337.012 121.489 335.856 121.489 334.65V306.71C121.488 305.564 121.052 304.461 120.268 303.624C119.484 302.787 118.411 302.278 117.266 302.201L116.159 299.356C116.058 299.101 115.883 298.881 115.657 298.725C115.43 298.569 115.162 298.484 114.887 298.48H103.261C102.986 298.484 102.718 298.569 102.491 298.725C102.265 298.881 102.09 299.101 101.989 299.356L100.895 302.163H81.408C80.4572 302.177 79.5343 302.486 78.7681 303.048C78.0019 303.611 77.4307 304.398 77.1341 305.3" stroke="#263238" stroke-linecap="round" stroke-linejoin="round"/>
<path d="M380.175 437.228C383.913 437.228 386.942 434.203 386.942 430.471C386.942 426.74 383.913 423.715 380.175 423.715C376.438 423.715 373.408 426.74 373.408 430.471C373.408 434.203 376.438 437.228 380.175 437.228Z" fill="white" stroke="#263238" stroke-linecap="round" stroke-linejoin="round"/>
<path d="M378.903 427.931C379.157 427.965 379.414 427.901 379.622 427.753C379.83 427.604 379.973 427.382 380.023 427.131H380.697V433.57H379.692V428.668H378.903V427.931Z" fill="#263238"/>
<path d="M458.48 430.471C458.482 431.808 458.087 433.116 457.345 434.228C456.603 435.341 455.547 436.209 454.311 436.722C453.075 437.236 451.714 437.371 450.4 437.112C449.087 436.853 447.88 436.21 446.932 435.266C445.984 434.321 445.339 433.118 445.077 431.807C444.814 430.496 444.948 429.137 445.459 427.901C445.971 426.666 446.839 425.61 447.952 424.867C449.065 424.124 450.374 423.727 451.713 423.727C453.505 423.727 455.224 424.438 456.493 425.702C457.762 426.966 458.476 428.681 458.48 430.471Z" fill="white" stroke="#263238" stroke-linecap="round" stroke-linejoin="round"/>
<path d="M451.738 427.969C451.42 427.969 451.217 428.147 451.217 428.604V429.29H450.288V428.668C450.288 427.639 450.797 427.055 451.802 427.055C452.807 427.055 453.303 427.639 453.303 428.668C453.279 429.156 453.154 429.634 452.935 430.072C452.716 430.509 452.408 430.896 452.031 431.208C451.433 431.843 451.268 432.148 451.268 432.478V432.618H453.188V433.57H450.288V432.783C450.301 432.388 450.398 432.002 450.571 431.647C450.744 431.293 450.99 430.978 451.293 430.725C451.594 430.482 451.84 430.177 452.014 429.831C452.187 429.485 452.284 429.105 452.298 428.719C452.272 428.134 452.069 427.969 451.738 427.969Z" fill="#263238"/>
<path d="M386.942 491.863C386.945 493.2 386.55 494.507 385.808 495.62C385.066 496.733 384.01 497.601 382.774 498.114C381.538 498.627 380.177 498.763 378.863 498.504C377.549 498.245 376.343 497.602 375.395 496.658C374.447 495.713 373.801 494.509 373.539 493.198C373.277 491.888 373.41 490.528 373.922 489.293C374.434 488.058 375.301 487.002 376.414 486.259C377.528 485.516 378.836 485.119 380.175 485.119C381.968 485.119 383.687 485.829 384.956 487.094C386.225 488.358 386.939 490.073 386.942 491.863Z" fill="white" stroke="#263238" stroke-linecap="round" stroke-linejoin="round"/>
<path d="M380.671 490.098C380.671 489.526 380.468 489.361 380.15 489.361C379.832 489.361 379.628 489.539 379.628 489.996V490.415H378.674V490.06C378.674 489.031 379.183 488.447 380.175 488.447C380.388 488.429 380.601 488.459 380.8 488.536C380.998 488.612 381.177 488.732 381.323 488.888C381.468 489.043 381.577 489.229 381.64 489.432C381.704 489.635 381.721 489.849 381.689 490.06V490.225C381.715 490.484 381.661 490.744 381.533 490.972C381.406 491.199 381.212 491.381 380.977 491.495C381.225 491.612 381.429 491.807 381.557 492.049C381.686 492.292 381.732 492.57 381.689 492.841V493.349C381.721 493.559 381.704 493.774 381.64 493.977C381.577 494.18 381.468 494.366 381.323 494.521C381.177 494.676 380.998 494.796 380.8 494.873C380.601 494.949 380.388 494.979 380.175 494.962C379.183 494.962 378.674 494.365 378.674 493.349V492.815H379.628V493.412C379.628 493.87 379.832 494.047 380.15 494.047C380.468 494.047 380.671 493.882 380.671 493.311V492.815C380.671 492.219 380.468 491.99 380.01 491.99H379.667V491.076H380.061C380.443 491.076 380.671 490.91 380.671 490.39V490.098Z" fill="#263238"/>
<path d="M458.48 491.863C458.482 493.2 458.087 494.507 457.345 495.62C456.603 496.733 455.547 497.601 454.311 498.114C453.075 498.627 451.714 498.763 450.4 498.504C449.087 498.245 447.88 497.602 446.932 496.658C445.984 495.713 445.339 494.509 445.077 493.198C444.814 491.888 444.948 490.528 445.459 489.293C445.971 488.058 446.839 487.002 447.952 486.259C449.065 485.516 450.374 485.119 451.713 485.119C453.505 485.119 455.224 485.829 456.493 487.094C457.762 488.358 458.476 490.073 458.48 491.863Z" fill="white" stroke="#263238" stroke-linecap="round" stroke-linejoin="round"/>
<path d="M450.021 492.866L451.865 488.523H452.972V492.866H453.443V493.781H452.972V494.949H451.954V493.781H450.021V492.866ZM451.954 492.866V490.491L450.975 492.866H451.954Z" fill="#263238"/>
<path d="M500.99 292.168H525.4" stroke="#263238" stroke-linecap="round" stroke-linejoin="round"/>
<path d="M491.259 308.602V292.168H496.958" stroke="#263238" stroke-linecap="round" stroke-linejoin="round"/>
<path d="M496.118 346.257H491.259V311.586" stroke="#263238" stroke-linecap="round" stroke-linejoin="round"/>
<path d="M505.009 346.245H498.891" stroke="#263238" stroke-linecap="round" stroke-linejoin="round"/>
<path d="M537.28 345.381V346.258H511.382" stroke="#263238" stroke-linecap="round" stroke-linejoin="round"/>
<path d="M537.28 304.017V342.105" stroke="#263238" stroke-linecap="round" stroke-linejoin="round"/>
<path d="M544.912 296.397V338.638H498.891V284.548H533.032L541.02 292.524L544.912 296.397Z" fill="white" stroke="#263238" stroke-linecap="round" stroke-linejoin="round"/>
<path d="M544.912 296.397H533.032V284.548L541.02 292.524L544.912 296.397Z" fill="white" stroke="#263238" stroke-linecap="round" stroke-linejoin="round"/>
<path d="M521.902 305.808V317.365" stroke="#263238" stroke-linecap="round" stroke-linejoin="round"/>
<path d="M527.689 311.586H516.114" stroke="#263238" stroke-linecap="round" stroke-linejoin="round"/>
<path d="M217.894 193.997V262.336H143.418V174.807H198.674L211.597 187.711L217.894 193.997Z" fill="#71C0F0" stroke="#263238" stroke-linecap="round" stroke-linejoin="round"/>
<path d="M159.979 187.965H208.277" stroke="#263238" stroke-linecap="round" stroke-linejoin="round"/>
<path d="M153.187 196.715H208.277" stroke="#263238" stroke-linecap="round" stroke-linejoin="round"/>
<path d="M153.187 205.478H208.277" stroke="#263238" stroke-linecap="round" stroke-linejoin="round"/>
<path d="M153.187 214.228H208.277" stroke="#263238" stroke-linecap="round" stroke-linejoin="round"/>
<path d="M153.187 222.991H208.277" stroke="#263238" stroke-linecap="round" stroke-linejoin="round"/>
<path d="M153.187 231.742H208.277" stroke="#263238" stroke-linecap="round" stroke-linejoin="round"/>
<path d="M153.187 240.492H208.277" stroke="#263238" stroke-linecap="round" stroke-linejoin="round"/>
<path d="M153.187 249.255H201.485" stroke="#263238" stroke-linecap="round" stroke-linejoin="round"/>
<path d="M217.894 193.997H198.674V174.807L211.597 187.711L217.894 193.997Z" fill="#71C0F0" stroke="#263238" stroke-linecap="round" stroke-linejoin="round"/>
<path d="M461.838 172.28V240.619H387.375V153.091H442.631L455.541 165.994L461.838 172.28Z" fill="#71C0F0" stroke="#263238" stroke-linecap="round" stroke-linejoin="round"/>
<path d="M403.936 166.248H452.234" stroke="#263238" stroke-linecap="round" stroke-linejoin="round"/>
<path d="M397.131 175.011H452.234" stroke="#263238" stroke-linecap="round" stroke-linejoin="round"/>
<path d="M397.131 183.761H452.234" stroke="#263238" stroke-linecap="round" stroke-linejoin="round"/>
<path d="M397.131 192.511H452.234" stroke="#263238" stroke-linecap="round" stroke-linejoin="round"/>
<path d="M397.131 201.274H452.234" stroke="#263238" stroke-linecap="round" stroke-linejoin="round"/>
<path d="M397.131 210.025H452.234" stroke="#263238" stroke-linecap="round" stroke-linejoin="round"/>
<path d="M397.131 218.788H452.234" stroke="#263238" stroke-linecap="round" stroke-linejoin="round"/>
<path d="M397.131 227.538H445.442" stroke="#263238" stroke-linecap="round" stroke-linejoin="round"/>
<path d="M461.838 172.28H442.63V153.091L455.541 165.994L461.838 172.28Z" fill="#71C0F0" stroke="#263238" stroke-linecap="round" stroke-linejoin="round"/>
<path d="M469.889 243.997V251.617H462.257" stroke="#263238" stroke-linecap="round" stroke-linejoin="round"/>
<path d="M447.197 251.617H394.485" stroke="#263238" stroke-linecap="round" stroke-linejoin="round" stroke-dasharray="11.84 11.84"/>
<path d="M386.955 251.617H379.323V243.997" stroke="#263238" stroke-linecap="round" stroke-linejoin="round"/>
<path d="M379.323 230.522V156.456" stroke="#263238" stroke-linecap="round" stroke-linejoin="round" stroke-dasharray="10.6 10.6"/>
<path d="M379.323 149.725V142.105H386.955" stroke="#263238" stroke-linecap="round" stroke-linejoin="round"/>
<path d="M402.016 142.105H454.727" stroke="#263238" stroke-linecap="round" stroke-linejoin="round" stroke-dasharray="11.84 11.84"/>
<path d="M462.257 142.105H469.889V149.725" stroke="#263238" stroke-linecap="round" stroke-linejoin="round"/>
<path d="M469.89 163.187V237.253" stroke="#263238" stroke-linecap="round" stroke-linejoin="round" stroke-dasharray="10.6 10.6"/>
<path d="M226.988 220.629L362.634 199.344" stroke="#263238" stroke-linecap="round" stroke-linejoin="round" stroke-dasharray="12 12"/>
<path d="M365.318 198.709L361.172 197.121L362.164 201.82L365.318 198.709Z" fill="#263238"/>
<path d="M228.375 220.629C228.375 220.903 228.294 221.171 228.141 221.398C227.989 221.626 227.772 221.803 227.519 221.908C227.266 222.013 226.987 222.04 226.718 221.987C226.449 221.933 226.202 221.802 226.008 221.608C225.814 221.414 225.682 221.168 225.629 220.899C225.575 220.631 225.602 220.352 225.707 220.099C225.812 219.846 225.99 219.63 226.218 219.478C226.446 219.326 226.714 219.245 226.988 219.245C227.171 219.243 227.352 219.278 227.521 219.347C227.69 219.416 227.843 219.518 227.973 219.646C228.102 219.775 228.204 219.929 228.273 220.097C228.342 220.266 228.377 220.447 228.375 220.629Z" fill="#263238"/>
<path d="M474.893 153.339C479.279 148.96 479.279 141.859 474.893 137.48C470.507 133.101 463.395 133.101 459.009 137.48C454.623 141.859 454.623 148.96 459.009 153.339C463.395 157.718 470.507 157.718 474.893 153.339Z" fill="white" stroke="#263238" stroke-linecap="round" stroke-linejoin="round"/>
<path d="M466.951 139.629V151.186" stroke="#263238" stroke-linecap="round" stroke-linejoin="round"/>
<path d="M472.739 145.407H461.176" stroke="#263238" stroke-linecap="round" stroke-linejoin="round"/>
<path d="M278.975 328.744C277.474 328.744 274.548 324.629 272.844 322.013C272.844 327.423 272.844 341.241 275.248 340.352C278.148 339.247 281.201 328.744 278.975 328.744Z" fill="white" stroke="#263238" stroke-linecap="round" stroke-linejoin="round"/>
<path d="M272.411 366.654C271.483 367.721 270.344 368.585 269.066 369.194C265.352 371.099 259.755 372 253.331 371.734C227.434 370.743 188.002 351.084 203.482 302.506C212.971 272.686 256.168 282.618 267.196 293.972C271.012 297.947 274.281 306.303 276.342 316.108C277.092 319.689 275.591 323.461 276.011 327.284C276.38 330.738 278.708 334.231 278.771 337.672C278.988 349.75 277.131 360.901 272.411 366.654Z" fill="white" stroke="#263238" stroke-linecap="round" stroke-linejoin="round"/>
<path d="M269.066 369.206C265.352 371.111 259.755 372.013 253.332 371.746C254.678 369.518 256.139 367.361 257.707 365.282C257.707 365.282 266.255 366.565 269.066 369.206Z" fill="#263238"/>
<path d="M261.205 365.104C261.205 365.104 258.852 394.517 262.732 401.147C266.611 407.776 229.227 414.418 214.268 401.147C214.268 401.147 222.816 379.252 221.989 358.107" fill="white"/>
<path d="M261.205 365.104C261.205 365.104 258.852 394.517 262.732 401.147C266.611 407.776 229.227 414.418 214.268 401.147C214.268 401.147 222.816 379.252 221.989 358.107" stroke="#263238" stroke-linecap="round" stroke-linejoin="round"/>
<path d="M267.196 308.958C267.196 308.958 278.835 304.03 274.905 287.723C269.371 264.724 256.906 278.935 252.759 275.506C246.31 270.197 233.933 265.346 223.961 273.74C213.989 282.135 207.908 283.075 195.176 295.051C182.443 307.027 182.456 333.875 195.176 344.492C207.896 355.109 211.228 366.285 223.414 369.829C235.6 373.372 253.764 368.559 257.415 359.377C259.516 354.425 260.751 349.15 261.065 343.781C261.065 343.781 271.636 325.137 267.196 308.958Z" fill="#263238"/>
<path d="M266.331 337.571C266.331 337.571 263.698 326.141 262.032 325.264C260.366 324.388 255.252 334.332 255.392 338.295C255.532 342.257 260.925 349.318 263.558 350.995C266.191 352.671 267.107 347.959 267.196 347.401" fill="white"/>
<path d="M266.331 337.571C266.331 337.571 263.698 326.141 262.032 325.264C260.366 324.388 255.252 334.332 255.392 338.295C255.532 342.257 260.925 349.318 263.558 350.995C266.191 352.671 267.107 347.959 267.196 347.401" stroke="#263238" stroke-linecap="round" stroke-linejoin="round"/>
<path d="M262.592 331.627C262.592 331.627 260.506 338.409 263.558 343.921" stroke="#263238" stroke-linecap="round" stroke-linejoin="round"/>
<path opacity="0.2" d="M265.505 295.864C265.199 299.496 264.233 303.852 261.205 306.189" stroke="white" stroke-linecap="round" stroke-linejoin="round"/>
<path opacity="0.2" d="M245.127 281.576C249.21 279.735 254.858 277.512 259.361 278.681C264.932 280.141 265.581 288.053 265.632 292.791" stroke="white" stroke-linecap="round" stroke-linejoin="round"/>
<path opacity="0.2" d="M253.777 316.209C253.159 318.22 252.34 320.165 251.334 322.013" stroke="white" stroke-linecap="round" stroke-linejoin="round"/>
<path opacity="0.2" d="M234.048 290.949C239.136 289.514 245.407 288.536 249.795 292.13C255.507 296.816 255.901 306.735 254.553 313.352" stroke="white" stroke-linecap="round" stroke-linejoin="round"/>
<path opacity="0.2" d="M239.06 309.466C243.448 317.492 243.372 333.888 233.221 337.774" stroke="white" stroke-linecap="round" stroke-linejoin="round"/>
<path opacity="0.2" d="M224.673 300.334C228.998 297.705 235.231 303.979 237.482 307.002" stroke="white" stroke-linecap="round" stroke-linejoin="round"/>
<path opacity="0.2" d="M236.007 275.684C235.25 274.689 234.217 273.939 233.036 273.528C231.855 273.117 230.579 273.063 229.367 273.372" stroke="white" stroke-linecap="round" stroke-linejoin="round"/>
<path opacity="0.2" d="M239.721 283.126C239.234 281.354 238.534 279.649 237.635 278.046" stroke="white" stroke-linecap="round" stroke-linejoin="round"/>
<path opacity="0.2" d="M227.014 292.333C227.014 292.333 227.688 279.24 218.11 282.834" stroke="white" stroke-linecap="round" stroke-linejoin="round"/>
<path opacity="0.2" d="M207.463 292.435C205.531 292.154 203.56 292.516 201.854 293.464" stroke="white" stroke-linecap="round" stroke-linejoin="round"/>
<path opacity="0.2" d="M215.439 301.007C214.503 297.812 212.455 295.056 209.664 293.235" stroke="white" stroke-linecap="round" stroke-linejoin="round"/>
<path opacity="0.2" d="M207.908 345.191C209.314 346.203 210.828 347.055 212.424 347.731" stroke="white" stroke-linecap="round" stroke-linejoin="round"/>
<path opacity="0.2" d="M202.248 313.885C199.704 322.013 198.801 336.745 205.581 343.337" stroke="white" stroke-linecap="round" stroke-linejoin="round"/>
<path opacity="0.2" d="M215.439 305.846C209.956 303.306 205.428 306.354 203.189 311.485" stroke="white" stroke-linecap="round" stroke-linejoin="round"/>
<path d="M210.91 390.923L217.13 372.966C217.13 372.966 262.083 367.06 272.831 381.945C283.58 396.829 210.91 390.923 210.91 390.923Z" fill="#71C0F0" stroke="#263238" stroke-linecap="round" stroke-linejoin="round"/>
<path d="M130.393 365.104C130.393 365.104 125.305 356.786 125.712 354.665C126.119 352.544 124.821 342.625 125.712 337.825C126.628 332.745 130.405 333.875 130.405 333.875C130.405 333.875 131.945 324.198 135.964 324.909C135.964 324.909 136.511 313.047 137.948 310.532C139.386 308.018 140.111 306.468 140.111 306.468C140.111 306.468 142.985 305.198 142.985 309.466V321.67L146.216 308.742L150.897 302.303C151.85 303.44 152.415 304.851 152.511 306.33C152.607 307.81 152.229 309.282 151.432 310.532C149.447 314.114 151.432 336.39 151.432 336.39C152.788 336.033 154.039 335.359 155.081 334.422C156.123 333.486 156.926 332.314 157.423 331.005C157.423 331.005 159.064 326.445 163.274 325.315C167.484 324.185 163.554 329.201 162.002 336.39C160.45 343.578 150.63 359.364 145.568 362.602" fill="white"/>
<path d="M130.393 365.104C130.393 365.104 125.305 356.786 125.712 354.665C126.119 352.544 124.821 342.625 125.712 337.825C126.628 332.745 130.405 333.875 130.405 333.875C130.405 333.875 131.945 324.198 135.964 324.909C135.964 324.909 136.511 313.047 137.948 310.532C139.386 308.018 140.111 306.468 140.111 306.468C140.111 306.468 142.985 305.198 142.985 309.466V321.67L146.216 308.742L150.897 302.303C151.85 303.44 152.415 304.851 152.511 306.33C152.607 307.81 152.229 309.282 151.432 310.532C149.447 314.114 151.432 336.39 151.432 336.39C152.788 336.033 154.039 335.359 155.081 334.422C156.123 333.486 156.926 332.314 157.423 331.005C157.423 331.005 159.064 326.445 163.274 325.315C167.484 324.185 163.554 329.201 162.002 336.39C160.45 343.578 150.63 359.364 145.568 362.602" stroke="#263238" stroke-linecap="round" stroke-linejoin="round"/>
<path d="M148.29 356.646L135.773 428.35L174.264 405.922L166.454 461.32C166.454 461.32 116.922 484.18 105.792 486.58C94.6622 488.98 91.8765 457.37 93.5428 449.013C95.2092 440.657 125.928 377.461 129.744 359.618" fill="white"/>
<path d="M148.29 356.646L135.773 428.35L174.264 405.922L166.454 461.32C166.454 461.32 116.922 484.18 105.792 486.58C94.6622 488.98 91.8765 457.37 93.5428 449.013C95.2092 440.657 125.928 377.461 129.744 359.618" stroke="#263238" stroke-linecap="round" stroke-linejoin="round"/>
<path d="M106.466 442.892C112.907 437.841 120.194 433.971 127.989 431.462" stroke="#263238" stroke-linecap="round" stroke-linejoin="round"/>
<path d="M188.014 392.079L186.361 443.73L185.623 466.781L147.984 476.217L137.948 478.757C117.227 464.787 120.28 428.49 120.28 428.49L130.38 421.238L136.435 422.445C136.435 422.445 174.518 394.2 188.014 392.079Z" fill="#71C0F0"/>
<mask id="mask0_37_186" style="mask-type:luminance" maskUnits="userSpaceOnUse" x="120" y="392" width="69" height="87">
<path d="M188.014 392.079L186.361 443.73L185.623 466.781L147.984 476.217L137.948 478.757C117.227 464.787 120.28 428.49 120.28 428.49L130.38 421.238L136.435 422.445C136.435 422.445 174.518 394.2 188.014 392.079Z" fill="white"/>
</mask>
<g mask="url(#mask0_37_186)">
<path opacity="0.2" d="M186.361 443.73L185.623 466.78L147.984 476.217C144.665 466.222 151.533 468.965 151.533 468.965C149.286 465.571 148.063 461.603 148.01 457.535L154.942 460.723C150.757 450.169 157.817 438.307 157.817 438.307L159.089 449.737C157.817 438.307 171.364 419.067 171.364 419.067C171.364 419.067 181.285 426.89 186.361 443.73Z" fill="black" fill-opacity="0.7"/>
</g>
<path d="M188.014 392.079L186.361 443.73L185.623 466.781L147.984 476.217L137.948 478.757C117.227 464.787 120.28 428.49 120.28 428.49L130.38 421.238L136.435 422.445C136.435 422.445 174.518 394.2 188.014 392.079Z" stroke="#263238" stroke-linecap="round" stroke-linejoin="round"/>
<path d="M156.57 444.098C156.57 444.098 156.431 454.754 161.531 463.542" stroke="#263238" stroke-linecap="round" stroke-linejoin="round"/>
<path d="M148.01 460.773C148.01 460.773 156.1 470.654 161.875 472.75" stroke="#263238" stroke-linecap="round" stroke-linejoin="round"/>
<path d="M136.435 422.394C136.435 422.394 129.795 436.186 133.624 449.737" stroke="#263238" stroke-linecap="round" stroke-linejoin="round"/>
<path d="M169.621 408.805C163.91 425.594 161.989 456.316 161.608 485.208C161.124 521.111 163.032 554.195 163.032 554.195C193.026 605.084 260.671 584.001 285.144 574.248H285.271C290.868 572 294.175 570.374 294.175 570.374C301.158 541.853 306.501 512.955 310.177 483.824C314.973 445.229 315.087 416.425 314.235 398.378C313.99 390.959 313.323 383.56 312.238 376.217C312.238 376.217 290.805 376.483 265.479 378.274C251.767 379.239 236.923 380.636 223.719 382.681C215.41 383.918 207.202 385.752 199.157 388.168C194.858 389.438 187.811 391.863 184.669 393.032C182.887 393.786 181.146 394.633 179.454 395.572" fill="#71C0F0"/>
<path opacity="0.2" d="M265.403 378.223C251.538 384.167 230.143 391.508 222.32 391.266C213.772 391.012 203.533 390.39 199.081 388.117C207.125 385.701 215.334 383.867 223.643 382.63C236.846 380.586 251.691 379.189 265.403 378.223Z" fill="black" fill-opacity="0.7"/>
<path opacity="0.2" d="M285.093 574.248C260.671 584.001 193.026 605.084 162.981 554.195C162.981 554.195 161.073 521.111 161.557 485.208C171.198 505.02 202.973 517.847 202.973 517.847C202.973 517.847 199.462 479.023 202.973 469.651C206.484 460.278 216.443 405.795 216.443 405.795C216.443 405.795 220.259 416.73 214.217 446.537C208.175 476.344 210.859 517.847 210.859 517.847C225.665 521.06 261.154 517.847 261.154 517.847C235.663 553.991 179.352 560.087 179.352 560.087C218.301 592.739 281.926 575.15 285.093 574.248Z" fill="black" fill-opacity="0.7"/>
<path opacity="0.2" d="M310.114 483.773C309.045 475.34 308.04 468.978 308.04 468.978C305.496 489.005 279.013 495.432 285.221 488.663C291.428 481.893 302.494 460.723 302.494 460.723C296.796 444.136 306.094 395.495 306.094 395.495C306.094 395.495 309.325 396.372 314.171 398.277C315.024 416.374 314.909 445.178 310.114 483.773Z" fill="black" fill-opacity="0.7"/>
<path d="M294.112 570.336C301.095 541.814 306.437 512.917 310.114 483.786C314.909 445.191 315.024 416.387 314.171 398.34C313.926 390.921 313.26 383.522 312.174 376.179C312.174 376.179 290.741 376.445 265.416 378.236C251.703 379.201 236.859 380.598 223.656 382.643C215.347 383.88 207.138 385.714 199.093 388.129C194.794 389.399 187.747 391.825 184.605 392.993C182.823 393.747 181.082 394.595 179.39 395.533" stroke="#263238" stroke-linecap="round" stroke-linejoin="round"/>
<path d="M169.621 408.805C163.91 425.594 161.989 456.316 161.608 485.208C161.124 521.111 163.032 554.195 163.032 554.195" stroke="#263238" stroke-linecap="round" stroke-linejoin="round"/>
<path d="M268.545 378.008C268.545 378.008 221.964 396.55 210.91 395.47" stroke="#263238" stroke-linecap="round" stroke-linejoin="round"/>
<path d="M216.876 403.09C216.876 403.09 203.367 494.403 207.896 525.556C207.896 525.556 204.143 555.477 199.984 574.184" stroke="#263238" stroke-linecap="round" stroke-linejoin="round"/>
<path d="M174.264 510.011C174.264 510.011 172.229 524.07 207.959 525.582C243.69 527.093 263.622 512.513 263.622 512.513" stroke="#263238" stroke-linecap="round" stroke-linejoin="round"/>
<path d="M414.023 293.972C413.107 286.479 412.446 266.997 414.023 265.752C415.601 264.508 423.907 251.579 423.907 251.579C425.7 251.719 425.179 254.551 425.179 254.551C425.179 254.551 435.978 235.945 438.458 232.186C440.939 228.427 442.618 230.916 442.198 235.069C442.198 235.069 445.162 228.986 446.497 230.853C449.118 234.536 443.038 252.887 443.038 252.887C443.038 252.887 448.533 252.481 448.265 258.704C448.265 258.704 451.611 257.662 451.891 263.085C452.081 266.692 450.339 277.284 446.625 275.074C446.625 275.074 444.271 290.174 430.089 297.451" fill="white"/>
<path d="M414.023 293.972C413.107 286.479 412.446 266.997 414.023 265.752C415.601 264.508 423.907 251.579 423.907 251.579C425.7 251.719 425.179 254.551 425.179 254.551C425.179 254.551 435.978 235.945 438.458 232.186C440.939 228.427 442.618 230.916 442.198 235.069C442.198 235.069 445.162 228.986 446.497 230.853C449.118 234.536 443.038 252.887 443.038 252.887C443.038 252.887 448.533 252.481 448.265 258.704C448.265 258.704 451.611 257.662 451.891 263.085C452.081 266.692 450.339 277.284 446.625 275.074C446.625 275.074 444.271 290.174 430.089 297.451" stroke="#263238" stroke-linecap="round" stroke-linejoin="round"/>
<path d="M425.153 254.5C425.153 254.5 421.693 260.647 419.34 264.939C416.987 269.232 416.987 271.569 416.987 271.569" stroke="#263238" stroke-linecap="round" stroke-linejoin="round"/>
<path d="M442.173 235.069C442.173 235.069 434.134 252.062 432.48 254.5" stroke="#263238" stroke-linecap="round" stroke-linejoin="round"/>
<path d="M443.012 252.887C443.012 252.887 439.819 256.075 439.412 256.557" stroke="#263238" stroke-linecap="round" stroke-linejoin="round"/>
<path d="M448.24 258.704C448.24 258.704 446.968 259.732 444.946 261.396" stroke="#263238" stroke-linecap="round" stroke-linejoin="round"/>
<path d="M446.599 275.074C446.599 275.074 447.299 270.235 447.299 269.829C447.299 269.423 449.512 267.886 450.199 265.676" stroke="#263238" stroke-linecap="round" stroke-linejoin="round"/>
<path d="M414.748 287.66C414.748 287.66 412.522 294.822 397.576 321.95C382.63 349.077 376.512 364.266 376.512 364.266L348.057 372.051L355.41 417.53C355.41 417.53 404.496 391.66 406.099 388.193C407.701 384.726 419.798 347.896 423.907 331.208C428.015 314.52 433.129 294.149 433.129 294.149" fill="white"/>
<path d="M414.748 287.66C414.748 287.66 412.522 294.822 397.576 321.95C382.63 349.077 376.512 364.266 376.512 364.266L348.057 372.051L355.41 417.53C355.41 417.53 404.496 391.66 406.099 388.193C407.701 384.726 419.798 347.896 423.907 331.208C428.015 314.52 433.129 294.149 433.129 294.149" stroke="#263238" stroke-linecap="round" stroke-linejoin="round"/>
<path d="M372.454 398.747C369.91 409.021 365.178 414.571 361.172 417.53C359.123 419.149 356.737 420.291 354.188 420.87L312.212 444.098C312.212 444.098 303.308 423.88 305.522 400.258C306.255 391.874 308.523 383.695 312.212 376.128L352.56 369.003L356.3 365.269H362.94C362.94 365.269 377.441 378.693 372.454 398.747Z" fill="#71C0F0"/>
<mask id="mask1_37_186" style="mask-type:luminance" maskUnits="userSpaceOnUse" x="305" y="365" width="69" height="80">
<path d="M372.454 398.747C369.91 409.021 365.178 414.571 361.172 417.53C359.123 419.149 356.737 420.291 354.188 420.87L312.212 444.098C312.212 444.098 303.308 423.88 305.522 400.258C306.255 391.874 308.523 383.695 312.212 376.128L352.56 369.003L356.3 365.269H362.94C362.94 365.269 377.441 378.693 372.454 398.747Z" fill="white"/>
</mask>
<g mask="url(#mask1_37_186)">
<path opacity="0.2" d="M361.172 417.53C359.123 419.149 356.737 420.291 354.188 420.87L312.212 444.098C312.212 444.098 303.308 423.88 305.522 400.258C313.446 401.147 310.826 427.804 313.612 428.109C316.626 428.452 329.715 408.805 332.399 408.805C336.686 408.805 332.539 427.512 332.399 428.109C332.984 427.906 351.708 420.908 357.101 410.697C359.772 405.63 361.719 409.948 361.172 417.53Z" fill="black" fill-opacity="0.7"/>
</g>
<path d="M372.454 398.747C369.91 409.021 365.178 414.571 361.172 417.53C359.123 419.149 356.737 420.291 354.188 420.87L312.212 444.098C312.212 444.098 303.308 423.88 305.522 400.258C306.255 391.874 308.523 383.695 312.212 376.128L352.56 369.003L356.3 365.269H362.94C362.94 365.269 377.441 378.693 372.454 398.747Z" stroke="#263238" stroke-linecap="round" stroke-linejoin="round"/>
<path d="M352.522 369.041C355.934 372.661 358.501 376.99 360.041 381.717C361.58 386.445 362.053 391.453 361.426 396.384" stroke="#263238" stroke-linecap="round" stroke-linejoin="round"/>
<path d="M328.176 417.53C328.176 417.53 315.888 433.697 312.174 444.098C312.174 444.098 301.998 477.487 287.904 486.707" stroke="#263238" stroke-linecap="round" stroke-linejoin="round"/>
<path d="M376.512 364.266C376.512 364.266 382.986 362.374 386.51 365.104" stroke="#263238" stroke-linecap="round" stroke-linejoin="round"/>
</svg>
